<svg width="48" height="48" viewBox="0 0 48 48" fill="none" xmlns="http://www.w3.org/2000/svg">
<path d="M15.078 44.9999C33.192 44.9999 43.101 29.9909 43.101 16.9979C43.101 16.5779 43.101 16.1519 43.083 15.7319C45.0122 14.3353 46.6772 12.6063 48 10.6259C46.1979 11.4204 44.2883 11.9441 42.333 12.1799C44.3926 10.9488 45.9352 9.01179 46.674 6.72888C44.739 7.87525 42.621 8.68 40.413 9.10788C38.9285 7.52695 36.9642 6.47964 34.8243 6.12815C32.6843 5.77667 30.4882 6.14065 28.576 7.16369C26.6639 8.18674 25.1424 9.81177 24.2473 11.7871C23.3523 13.7624 23.1335 15.9777 23.625 18.0899C19.7092 17.8935 15.8784 16.8763 12.3811 15.1041C8.88381 13.3319 5.79805 10.8444 3.324 7.80288C2.06802 9.97213 1.68472 12.5381 2.25194 14.9797C2.81916 17.4213 4.29436 19.5555 6.378 20.9489C4.81662 20.8958 3.28956 20.4766 1.92 19.7249V19.8599C1.92269 22.1323 2.70992 24.3341 4.14862 26.0932C5.58732 27.8522 7.58924 29.0605 9.816 29.5139C8.97079 29.7467 8.09769 29.8628 7.221 29.8589C6.60295 29.8608 5.98614 29.8035 5.379 29.6879C6.00836 31.6441 7.23382 33.3544 8.88374 34.5793C10.5337 35.8042 12.5254 36.4824 14.58 36.5189C11.0897 39.2603 6.7782 40.7471 2.34 40.7399C1.55796 40.7432 0.776469 40.6981 0 40.6049C4.50454 43.4767 9.73589 45.0015 15.078 44.9999Z" fill="#FAFAFA"/>
</svg>
