<svg width="48" height="48" viewBox="0 0 48 48" fill="none" xmlns="http://www.w3.org/2000/svg">
<path d="M24 12C24.3978 12 24.7794 12.158 25.0607 12.4393C25.342 12.7206 25.5 13.1022 25.5 13.5V22.5H34.5C34.8978 22.5 35.2794 22.658 35.5607 22.9393C35.842 23.2206 36 23.6022 36 24C36 24.3978 35.842 24.7794 35.5607 25.0607C35.2794 25.342 34.8978 25.5 34.5 25.5H25.5V34.5C25.5 34.8978 25.342 35.2794 25.0607 35.5607C24.7794 35.842 24.3978 36 24 36C23.6022 36 23.2206 35.842 22.9393 35.5607C22.658 35.2794 22.5 34.8978 22.5 34.5V25.5H13.5C13.1022 25.5 12.7206 25.342 12.4393 25.0607C12.158 24.7794 12 24.3978 12 24C12 23.6022 12.158 23.2206 12.4393 22.9393C12.7206 22.658 13.1022 22.5 13.5 22.5H22.5V13.5C22.5 13.1022 22.658 12.7206 22.9393 12.4393C23.2206 12.158 23.6022 12 24 12Z" fill="#FAFAFA"/>
</svg>
